<svg width="46" height="46" viewBox="0 0 46 46" fill="none" xmlns="http://www.w3.org/2000/svg">
<circle cx="22.917" cy="22.9165" r="18" transform="rotate(-180 22.917 22.9165)" fill="white"/>
<path fill-rule="evenodd" clip-rule="evenodd" d="M45.834 22.9167C45.834 10.2604 35.5736 -4.48497e-07 22.9173 -1.00172e-06C10.2611 -1.55494e-06 0.000651865 10.2604 0.000651312 22.9167C0.000650758 35.5729 10.2611 45.8333 22.9173 45.8333C35.5736 45.8333 45.834 35.5729 45.834 22.9167ZM27.5152 16.0562C27.8947 15.6633 28.1047 15.1371 28.1 14.5908C28.0952 14.0446 27.8761 13.5221 27.4899 13.1358C27.1036 12.7495 26.5811 12.5304 26.0348 12.5257C25.4886 12.5209 24.9623 12.7309 24.5694 13.1104L16.2361 21.4437C15.8455 21.8344 15.6261 22.3642 15.6261 22.9167C15.6261 23.4691 15.8455 23.9989 16.2361 24.3896L24.5694 32.7229C24.9623 33.1024 25.4886 33.3124 26.0348 33.3077C26.5811 33.3029 27.1036 33.0838 27.4899 32.6975C27.8761 32.3113 28.0952 31.7887 28.1 31.2425C28.1047 30.6963 27.8947 30.17 27.5152 29.7771L20.6548 22.9167L27.5152 16.0562Z" fill="#FF9933"/>
</svg>
