<svg width="28" height="28" viewBox="0 0 28 28" fill="none" xmlns="http://www.w3.org/2000/svg">
<path d="M10.4998 5.83326C10.1904 5.83326 9.89367 5.95618 9.67488 6.17497C9.45609 6.39376 9.33317 6.69051 9.33317 6.99993C9.33317 7.30935 9.45609 7.60609 9.67488 7.82489C9.89367 8.04368 10.1904 8.1666 10.4998 8.1666C10.8093 8.1666 11.106 8.04368 11.3248 7.82489C11.5436 7.60609 11.6665 7.30935 11.6665 6.99993C11.6665 6.69051 11.5436 6.39376 11.3248 6.17497C11.106 5.95618 10.8093 5.83326 10.4998 5.83326ZM7.19817 5.83326C7.43921 5.15014 7.8862 4.5586 8.47754 4.14018C9.06887 3.72177 9.77544 3.49707 10.4998 3.49707C11.2242 3.49707 11.9308 3.72177 12.5221 4.14018C13.1135 4.5586 13.5605 5.15014 13.8015 5.83326H22.1665C22.4759 5.83326 22.7727 5.95618 22.9915 6.17497C23.2103 6.39376 23.3332 6.69051 23.3332 6.99993C23.3332 7.30935 23.2103 7.60609 22.9915 7.82489C22.7727 8.04368 22.4759 8.1666 22.1665 8.1666H13.8015C13.5605 8.84972 13.1135 9.44126 12.5221 9.85968C11.9308 10.2781 11.2242 10.5028 10.4998 10.5028C9.77544 10.5028 9.06887 10.2781 8.47754 9.85968C7.8862 9.44126 7.43921 8.84972 7.19817 8.1666H5.83317C5.52375 8.1666 5.22701 8.04368 5.00821 7.82489C4.78942 7.60609 4.6665 7.30935 4.6665 6.99993C4.6665 6.69051 4.78942 6.39376 5.00821 6.17497C5.22701 5.95618 5.52375 5.83326 5.83317 5.83326H7.19817ZM17.4998 12.8333C17.1904 12.8333 16.8937 12.9562 16.6749 13.175C16.4561 13.3938 16.3332 13.6905 16.3332 13.9999C16.3332 14.3094 16.4561 14.6061 16.6749 14.8249C16.8937 15.0437 17.1904 15.1666 17.4998 15.1666C17.8093 15.1666 18.106 15.0437 18.3248 14.8249C18.5436 14.6061 18.6665 14.3094 18.6665 13.9999C18.6665 13.6905 18.5436 13.3938 18.3248 13.175C18.106 12.9562 17.8093 12.8333 17.4998 12.8333ZM14.1982 12.8333C14.4392 12.1501 14.8862 11.5586 15.4775 11.1402C16.0689 10.7218 16.7754 10.4971 17.4998 10.4971C18.2242 10.4971 18.9308 10.7218 19.5221 11.1402C20.1135 11.5586 20.5605 12.1501 20.8015 12.8333H22.1665C22.4759 12.8333 22.7727 12.9562 22.9915 13.175C23.2103 13.3938 23.3332 13.6905 23.3332 13.9999C23.3332 14.3094 23.2103 14.6061 22.9915 14.8249C22.7727 15.0437 22.4759 15.1666 22.1665 15.1666H20.8015C20.5605 15.8497 20.1135 16.4413 19.5221 16.8597C18.9308 17.2781 18.2242 17.5028 17.4998 17.5028C16.7754 17.5028 16.0689 17.2781 15.4775 16.8597C14.8862 16.4413 14.4392 15.8497 14.1982 15.1666H5.83317C5.52375 15.1666 5.22701 15.0437 5.00821 14.8249C4.78942 14.6061 4.6665 14.3094 4.6665 13.9999C4.6665 13.6905 4.78942 13.3938 5.00821 13.175C5.22701 12.9562 5.52375 12.8333 5.83317 12.8333H14.1982ZM10.4998 19.8333C10.1904 19.8333 9.89367 19.9562 9.67488 20.175C9.45609 20.3938 9.33317 20.6905 9.33317 20.9999C9.33317 21.3094 9.45609 21.6061 9.67488 21.8249C9.89367 22.0437 10.1904 22.1666 10.4998 22.1666C10.8093 22.1666 11.106 22.0437 11.3248 21.8249C11.5436 21.6061 11.6665 21.3094 11.6665 20.9999C11.6665 20.6905 11.5436 20.3938 11.3248 20.175C11.106 19.9562 10.8093 19.8333 10.4998 19.8333ZM7.19817 19.8333C7.43921 19.1501 7.8862 18.5586 8.47754 18.1402C9.06887 17.7218 9.77544 17.4971 10.4998 17.4971C11.2242 17.4971 11.9308 17.7218 12.5221 18.1402C13.1135 18.5586 13.5605 19.1501 13.8015 19.8333H22.1665C22.4759 19.8333 22.7727 19.9562 22.9915 20.175C23.2103 20.3938 23.3332 20.6905 23.3332 20.9999C23.3332 21.3094 23.2103 21.6061 22.9915 21.8249C22.7727 22.0437 22.4759 22.1666 22.1665 22.1666H13.8015C13.5605 22.8497 13.1135 23.4413 12.5221 23.8597C11.9308 24.2781 11.2242 24.5028 10.4998 24.5028C9.77544 24.5028 9.06887 24.2781 8.47754 23.8597C7.8862 23.4413 7.43921 22.8497 7.19817 22.1666H5.83317C5.52375 22.1666 5.22701 22.0437 5.00821 21.8249C4.78942 21.6061 4.6665 21.3094 4.6665 20.9999C4.6665 20.6905 4.78942 20.3938 5.00821 20.175C5.22701 19.9562 5.52375 19.8333 5.83317 19.8333H7.19817Z" fill="#FF9933"/>
</svg>
