<svg width="21" height="20" viewBox="0 0 21 20" fill="none" xmlns="http://www.w3.org/2000/svg">
<path d="M11.733 4.59634C11.733 7.13484 9.71475 9.19268 7.22513 9.19268C4.7355 9.19268 2.71729 7.13484 2.71729 4.59634C2.71729 2.05784 4.7355 0 7.22513 0C9.71475 0 11.733 2.05784 11.733 4.59634Z" fill="#121212"/>
<path d="M11.9693 9.73961H10.2236L7.73397 11.82C7.64558 11.8951 7.59402 12.0002 7.59402 12.1129V14.1858C7.59402 14.381 7.45408 14.5538 7.26256 14.5763C7.0416 14.5988 6.85745 14.4186 6.85745 14.2008V11.7524V11.7374C6.85745 11.7224 6.85745 11.7149 6.86482 11.6999C6.86482 11.6848 6.87218 11.6773 6.87218 11.6623C6.87218 11.6473 6.87955 11.6398 6.87955 11.6248C6.88692 11.6097 6.88692 11.6022 6.89428 11.5872C6.90165 11.5797 6.90165 11.5647 6.90901 11.5572C6.91638 11.5496 6.92374 11.5346 6.93111 11.5271C6.93847 11.5196 6.94584 11.5121 6.95321 11.4971C6.96057 11.4896 6.96794 11.4745 6.98267 11.467L6.9974 11.452L7.62349 10.9338C7.71924 10.8512 7.65295 10.6935 7.52773 10.701C7.43198 10.7085 7.32886 10.716 7.2331 10.716C6.38606 10.716 5.60527 10.348 4.98659 9.72461H2.49697C1.11959 9.72461 0 11.1591 0 12.9315V19.4654C0 19.7208 0.206239 19.9311 0.456669 19.9311H14.0244C14.2748 19.9311 14.481 19.7208 14.481 19.4654V12.9465C14.4663 11.1741 13.3467 9.73958 11.9693 9.73958L11.9693 9.73961Z" fill="#121212"/>
<path d="M18.3558 8.14835C18.1495 8.14835 17.9875 7.98313 17.9875 7.77283C17.9875 7.56254 18.1495 7.39731 18.3558 7.39731H21.0001V6.99927H18.9303C18.7241 6.99927 18.562 6.83404 18.562 6.62375C18.562 6.41345 18.7241 6.24823 18.9303 6.24823H21.0001V5.85018H18.9303C18.7241 5.85018 18.562 5.68496 18.562 5.47466C18.562 5.26437 18.7241 5.09914 18.9303 5.09914H21.0001V4.66354H18.3558C18.1495 4.66354 17.9875 4.49832 17.9875 4.28802C17.9875 4.07773 18.1495 3.9125 18.3558 3.9125H20.9927C20.9337 3.42433 20.5286 3.04883 20.0425 3.04883H17.2657C16.7353 3.04883 16.3081 3.48443 16.3081 4.02518V8.75666C16.3081 9.2974 17.4056 10.8896 17.9359 10.8896H19.3722C19.9026 10.8896 21.0001 9.29733 21.0001 8.75666V8.14832L18.3558 8.14835Z" fill="#121212"/>
<path d="M17.8903 11.7833V12.9098C17.8903 12.985 17.9492 13.0525 18.0302 13.0525H19.2308C19.3045 13.0525 19.3708 12.9925 19.3708 12.9098V11.7833C19.3708 11.7082 19.3118 11.6406 19.2308 11.6406H18.0302C17.9492 11.6406 17.8903 11.7007 17.8903 11.7833Z" fill="#121212"/>
<path d="M18.4956 13.7969C18.4073 13.7969 18.341 13.872 18.341 13.9546V17.4694C18.341 18.1228 17.6191 19.2494 16.8826 19.2494H15.3653C15.2769 19.2494 15.2106 19.3245 15.2106 19.4071V19.5799C15.2106 19.655 15.1958 19.7301 15.1811 19.7977C15.1516 19.8953 15.2253 20.0004 15.3284 20.0004H16.89C18.098 20.0004 19.085 18.4684 19.085 17.4695V13.9546C19.085 13.8645 19.0113 13.7969 18.9303 13.7969L18.4956 13.7969Z" fill="#121212"/>
</svg>
