<svg width="168" height="115" viewBox="0 0 168 115" fill="none" xmlns="http://www.w3.org/2000/svg">
<rect x="0.221713" y="0.221713" width="167.557" height="105.557" rx="3.32569" fill="white" stroke="#242424" stroke-width="0.443425" stroke-dasharray="4.43 4.43"/>
<g filter="url(#filter0_dd_438_1606)">
<rect x="53" y="71.9976" width="62.8115" height="15.9523" rx="7.97615" fill="url(#paint0_linear_438_1606)"/>
<path d="M69.8927 82.2754C69.4873 82.2754 69.2846 82.0727 69.2846 81.6673V76.5792C69.2846 76.1739 69.4873 75.9712 69.8927 75.9712H72.0388C72.7005 75.9712 73.2132 76.1172 73.5769 76.4093C73.9405 76.6955 74.1223 77.0949 74.1223 77.6076C74.1223 77.9474 74.0359 78.2395 73.863 78.4839C73.6901 78.7283 73.4517 78.9072 73.1476 79.0204C73.5053 79.1218 73.7825 79.3006 73.9793 79.557C74.1819 79.8074 74.2833 80.1263 74.2833 80.5138C74.2833 81.0742 74.0925 81.5093 73.711 81.8193C73.3354 82.1234 72.8108 82.2754 72.1372 82.2754H69.8927ZM70.3845 78.6449H71.8421C72.623 78.6449 73.0135 78.3438 73.0135 77.7417C73.0135 77.1396 72.623 76.8386 71.8421 76.8386H70.3845V78.6449ZM70.3845 81.408H71.9941C72.781 81.408 73.1745 81.092 73.1745 80.4601C73.1745 79.8282 72.781 79.5123 71.9941 79.5123H70.3845V81.408ZM75.9061 82.3469C75.5245 82.3469 75.3338 82.1562 75.3338 81.7746V78.3945C75.3338 78.0189 75.5156 77.8311 75.8793 77.8311C76.2429 77.8311 76.4247 78.0189 76.4247 78.3945V78.6717C76.6393 78.159 77.0984 77.8729 77.8018 77.8133C78.0582 77.7834 78.2012 77.9295 78.231 78.2514C78.2608 78.5674 78.1059 78.7432 77.766 78.779L77.5693 78.7969C76.8361 78.8684 76.4694 79.244 76.4694 79.9236V81.7746C76.4694 82.1562 76.2816 82.3469 75.9061 82.3469ZM80.7598 82.3648C80.3067 82.3648 79.9133 82.2724 79.5794 82.0876C79.2456 81.9028 78.9863 81.6405 78.8015 81.3007C78.6166 80.9549 78.5242 80.5496 78.5242 80.0846C78.5242 79.6196 78.6166 79.2172 78.8015 78.8774C78.9863 78.5376 79.2456 78.2753 79.5794 78.0905C79.9133 77.9057 80.3067 77.8133 80.7598 77.8133C81.2129 77.8133 81.6063 77.9057 81.9402 78.0905C82.274 78.2753 82.5333 78.5376 82.7181 78.8774C82.9029 79.2172 82.9953 79.6196 82.9953 80.0846C82.9953 80.5496 82.9029 80.9549 82.7181 81.3007C82.5333 81.6405 82.274 81.9028 81.9402 82.0876C81.6063 82.2724 81.2129 82.3648 80.7598 82.3648ZM80.7598 81.5153C81.0936 81.5153 81.3619 81.3961 81.5646 81.1576C81.7673 80.9132 81.8686 80.5555 81.8686 80.0846C81.8686 79.6076 81.7673 79.2529 81.5646 79.0204C81.3619 78.782 81.0936 78.6628 80.7598 78.6628C80.4259 78.6628 80.1577 78.782 79.955 79.0204C79.7523 79.2529 79.651 79.6076 79.651 80.0846C79.651 80.5555 79.7523 80.9132 79.955 81.1576C80.1577 81.3961 80.4259 81.5153 80.7598 81.5153ZM85.5207 82.3469C85.2107 82.3469 84.996 82.1919 84.8768 81.8819L83.5802 78.5733C83.5027 78.3647 83.5057 78.1888 83.5891 78.0457C83.6786 77.9027 83.8336 77.8311 84.0541 77.8311C84.1853 77.8311 84.2926 77.8639 84.3761 77.9295C84.4595 77.9891 84.5311 78.1054 84.5907 78.2782L85.5743 80.9698L86.5848 78.2067C86.6802 77.9563 86.8501 77.8311 87.0945 77.8311C87.3449 77.8311 87.5148 77.9563 87.6042 78.2067L88.6146 80.9967L89.6072 78.2514C89.6668 78.0905 89.7414 77.9802 89.8308 77.9206C89.9262 77.8609 90.0305 77.8311 90.1437 77.8311C90.3584 77.8311 90.4985 77.9086 90.564 78.0636C90.6296 78.2127 90.6236 78.3826 90.5461 78.5733L89.2585 81.8819C89.1333 82.1919 88.9187 82.3469 88.6146 82.3469C88.2987 82.3469 88.0841 82.1919 87.9708 81.8819L87.0587 79.4586L86.1645 81.873C86.0512 82.1889 85.8366 82.3469 85.5207 82.3469ZM92.9674 82.3648C92.7111 82.3648 92.4399 82.338 92.1537 82.2843C91.8676 82.2307 91.6112 82.1383 91.3847 82.0071C91.2595 81.9356 91.182 81.8491 91.1522 81.7478C91.1224 81.6405 91.1254 81.5421 91.1611 81.4527C91.2029 81.3573 91.2684 81.2888 91.3579 81.247C91.4532 81.2053 91.5635 81.2143 91.6887 81.2739C91.9272 81.3871 92.1507 81.4676 92.3594 81.5153C92.568 81.557 92.7737 81.5779 92.9764 81.5779C93.2625 81.5779 93.4742 81.5302 93.6113 81.4348C93.7544 81.3335 93.8259 81.2023 93.8259 81.0414C93.8259 80.791 93.6411 80.63 93.2715 80.5585L92.3773 80.3886C91.6202 80.2455 91.2416 79.8521 91.2416 79.2082C91.2416 78.9221 91.3191 78.6747 91.4741 78.466C91.6351 78.2574 91.8556 78.0964 92.1358 77.9832C92.416 77.8699 92.7379 77.8133 93.1016 77.8133C93.6262 77.8133 94.0942 77.9295 94.5055 78.162C94.6188 78.2216 94.6843 78.3051 94.7022 78.4124C94.7261 78.5137 94.7141 78.6121 94.6665 78.7075C94.6247 78.7969 94.5562 78.8625 94.4608 78.9042C94.3654 78.94 94.2551 78.928 94.1299 78.8684C93.9451 78.773 93.7663 78.7045 93.5934 78.6628C93.4265 78.621 93.2655 78.6002 93.1105 78.6002C92.8184 78.6002 92.6008 78.6508 92.4577 78.7522C92.3206 78.8535 92.2521 78.9877 92.2521 79.1546C92.2521 79.4169 92.422 79.5778 92.7618 79.6375L93.656 79.8074C94.0435 79.8789 94.3356 80.01 94.5323 80.2008C94.735 80.3916 94.8364 80.6479 94.8364 80.9698C94.8364 81.405 94.6665 81.7478 94.3267 81.9982C93.9869 82.2426 93.5338 82.3648 92.9674 82.3648ZM97.8882 82.3648C97.3934 82.3648 96.9671 82.2724 96.6094 82.0876C96.2517 81.9028 95.9745 81.6405 95.7778 81.3007C95.587 80.9609 95.4917 80.5585 95.4917 80.0935C95.4917 79.6404 95.5841 79.244 95.7689 78.9042C95.9596 78.5644 96.2189 78.2991 96.5468 78.1083C96.8807 77.9116 97.2592 77.8133 97.6825 77.8133C98.3025 77.8133 98.7913 78.01 99.149 78.4034C99.5126 78.7969 99.6945 79.3334 99.6945 80.013C99.6945 80.2336 99.5514 80.3439 99.2652 80.3439H96.5647C96.6482 81.1248 97.0953 81.5153 97.906 81.5153C98.061 81.5153 98.2339 81.4974 98.4247 81.4617C98.6214 81.4199 98.8062 81.3514 98.9791 81.256C99.1341 81.1666 99.2652 81.1397 99.3726 81.1755C99.4799 81.2053 99.5544 81.2679 99.5961 81.3633C99.6438 81.4587 99.6498 81.566 99.614 81.6852C99.5842 81.7985 99.5007 81.8968 99.3636 81.9803C99.155 82.1115 98.9135 82.2098 98.6393 82.2754C98.371 82.335 98.1206 82.3648 97.8882 82.3648ZM97.7272 78.5733C97.3993 78.5733 97.134 78.6747 96.9313 78.8774C96.7287 79.0801 96.6064 79.3543 96.5647 79.7H98.7645C98.7406 79.3364 98.6393 79.0592 98.4605 78.8684C98.2876 78.6717 98.0431 78.5733 97.7272 78.5733Z" fill="#FCFCFF"/>
</g>
<path d="M84.4837 17.7695C87.7166 17.7695 90.9545 19.004 93.4212 21.4828C95.5146 23.5866 96.7204 26.2462 97.0372 28.9886C102.185 29.4582 106.212 33.8015 106.212 39.0968C106.212 44.7057 101.687 49.2527 96.1056 49.2527H71.3459C66.587 49.2527 62.7559 45.4026 62.7559 40.6202C62.7559 35.8378 66.587 31.9877 71.3459 31.9877H71.946C71.5007 28.2532 72.7102 24.3487 75.562 21.4828C78.0286 19.004 81.2507 17.7695 84.4837 17.7695ZM84.4837 28.4332C84.2155 28.4322 84.0272 28.4828 83.8047 28.6871L78.2464 33.765C77.851 34.1216 77.7783 34.8174 78.1675 35.209C78.5428 35.5869 79.2121 35.6324 79.6044 35.2725L83.4731 31.7338V42.6514C83.4731 43.2123 83.9254 43.667 84.4837 43.667C85.0419 43.667 85.4943 43.2123 85.4943 42.6514V31.7338L89.363 35.2725C89.7553 35.6324 90.4433 35.6047 90.7999 35.209C91.1565 34.8133 91.1363 34.1283 90.721 33.765L85.1627 28.6871C85.0183 28.5541 84.754 28.4383 84.4837 28.4332Z" fill="url(#paint1_linear_438_1606)" fill-opacity="0.6"/>
<defs>
<filter id="filter0_dd_438_1606" x="32.5608" y="57.9456" width="103.69" height="56.8306" filterUnits="userSpaceOnUse" color-interpolation-filters="sRGB">
<feFlood flood-opacity="0" result="BackgroundImageFix"/>
<feColorMatrix in="SourceAlpha" type="matrix" values="0 0 0 0 0 0 0 0 0 0 0 0 0 0 0 0 0 0 127 0" result="hardAlpha"/>
<feOffset dy="2.5549"/>
<feGaussianBlur stdDeviation="1.91618"/>
<feColorMatrix type="matrix" values="0 0 0 0 0.2 0 0 0 0 0.364706 0 0 0 0 1 0 0 0 0.25 0"/>
<feBlend mode="normal" in2="BackgroundImageFix" result="effect1_dropShadow_438_1606"/>
<feColorMatrix in="SourceAlpha" type="matrix" values="0 0 0 0 0 0 0 0 0 0 0 0 0 0 0 0 0 0 127 0" result="hardAlpha"/>
<feMorphology radius="1.91618" operator="erode" in="SourceAlpha" result="effect2_dropShadow_438_1606"/>
<feOffset dy="6.38726"/>
<feGaussianBlur stdDeviation="11.1777"/>
<feColorMatrix type="matrix" values="0 0 0 0 0.2 0 0 0 0 0.364706 0 0 0 0 1 0 0 0 0.35 0"/>
<feBlend mode="normal" in2="effect1_dropShadow_438_1606" result="effect2_dropShadow_438_1606"/>
<feBlend mode="normal" in="SourceGraphic" in2="effect2_dropShadow_438_1606" result="shape"/>
</filter>
<linearGradient id="paint0_linear_438_1606" x1="53" y1="71.9976" x2="117.544" y2="89.7416" gradientUnits="userSpaceOnUse">
<stop stop-color="#53B9EA"/>
<stop offset="1" stop-color="#2594FB"/>
</linearGradient>
<linearGradient id="paint1_linear_438_1606" x1="71.9626" y1="19.2499" x2="111.707" y2="51.4408" gradientUnits="userSpaceOnUse">
<stop stop-color="#53B9EA"/>
<stop offset="1" stop-color="#2594FB"/>
</linearGradient>
</defs>
</svg>
