<?xml version="1.0" encoding="utf-8"?>
<!-- Svg Vector Icons : http://www.onlinewebfonts.com/icon -->
<!DOCTYPE svg PUBLIC "-//W3C//DTD SVG 1.1//EN" "http://www.w3.org/Graphics/SVG/1.1/DTD/svg11.dtd">
<svg version="1.1" xmlns="http://www.w3.org/2000/svg" xmlns:xlink="http://www.w3.org/1999/xlink" x="0px" y="0px" viewBox="0 0 1000 1000" enable-background="new 0 0 1000 1000" xml:space="preserve">
<metadata> Svg Vector Icons : http://www.onlinewebfonts.com/icon </metadata>
<g><g transform="translate(0.000000,512.000000) scale(0.100000,-0.100000)"><path d="M4221.5,4978.6c-310.5-82.4-517.6-212.8-588.5-375.7c-30.7-65.2-40.2-130.3-40.2-268.4l-1.9-182.1l-105.4,3.8c-57.5,1.9-182.1,21.1-278,44.1c-408.3,95.8-791.7,57.5-856.9-86.3c-23-49.8-1.9-92,103.5-224.3c107.3-132.3,78.6-245.4-90.1-364.2c-46-32.6-84.3-63.3-80.5-65.2c1.9-1.9,141.9-65.2,310.5-141.9c442.8-199.4,895.2-433.2,1088.8-561.7l170.6-113.1l278,30.7c446.6,49.8,929.7,72.8,1292,59.4l337.4-13.4v141.9c0,118.9,9.6,164.8,57.5,266.5c78.6,168.7,216.6,327.8,439,508c396.8,318.2,454.3,435.1,343.1,676.7c-126.5,272.2-617.3,586.6-952.7,611.5c-157.2,11.5-208.9-15.3-241.5-126.5c-40.3-132.3-82.4-126.5-347,32.6C4740.9,5024.6,4532,5061,4221.5,4978.6z"/><path d="M4683.4,2417.6c-136.1-9.6-375.7-30.7-531-49.8c-235.8-26.8-283.7-38.3-293.3-65.2c-19.2-61.3-164.8-276-274.1-402.6c-59.4-69-396.8-414-753.3-766.8c-356.6-356.5-695.8-711.2-761-795.5c-458.2-613.4-663.3-1125.2-730.3-1819.2c-105.4-1067.7,197.4-1982.1,831.9-2526.5c469.6-400.6,1029.4-623,1859.4-736.1c350.8-47.9,1261.3-47.9,1667.7,0c354.6,42.1,745.7,111.2,987.2,176.3c991.1,264.5,1842.2,1284.3,1974.4,2365.5c69,573.2-44.1,1090.7-404.5,1830.7c-301,623-559.7,954.6-1368.7,1763.6c-387.2,387.2-649.9,672.9-843.4,916.3c-53.7,67.1-69,74.8-191.7,90.1C5647.7,2425.3,4961.4,2436.8,4683.4,2417.6z M5262.4,838c51.8-46,53.7-53.7,59.4-264.6l7.7-218.5l164.8-24.9c201.3-28.8,463.9-113.1,479.2-153.3c11.5-28.8-57.5-324-107.3-446.7c-32.6-86.3-74.8-93.9-230-34.5c-159.1,61.3-435.1,101.6-594.3,88.2c-209-17.3-333.5-92-368.1-224.3c-49.8-185.9,107.4-314.4,603.8-496.5c498.4-180.2,759.1-410.2,832-730.3c24.9-107.4,24.9-329.7,0-437.1c-72.9-320.1-368.1-601.9-724.6-693.9l-97.8-24.9v-245.4c0-237.7-1.9-249.2-47.9-293.3c-44.1-46-57.5-47.9-268.4-47.9c-210.9,0-224.3,1.9-268.4,47.9c-46,44.1-47.9,57.5-47.9,266.5v220.4l-90.1,11.5c-260.7,34.5-559.7,113.1-651.8,174.4c-24.9,15.3-44.1,47.9-44.1,72.8c0,76.7,113.1,477.3,138,494.6c38.3,23,59.4,19.2,210.9-40.2c214.7-86.3,425.6-122.7,663.3-113.1c174.5,5.8,218.5,13.4,291.4,53.7c207,115,232,339.3,55.6,486.9c-84.4,70.9-182.1,118.8-446.7,216.6c-308.6,113.1-502.2,216.6-642.2,343.1c-201.3,182.1-289.5,433.2-249.2,713.1c47.9,333.6,272.2,588.5,630.7,715l143.8,51.7l9.6,243.5c9.6,237.7,11.5,243.5,63.3,289.5c49.8,42.1,69,46,262.6,46C5193.4,884,5212.5,880.2,5262.4,838z"/></g></g>
</svg>