<svg width="21" height="21" viewBox="0 0 21 21" fill="none" xmlns="http://www.w3.org/2000/svg">
<g filter="url(#filter0_d_91_815)">
<path fill-rule="evenodd" clip-rule="evenodd" d="M6 0C4.89543 0 4 0.89543 4 2V11C4 12.1046 4.89543 13 6 13H15C16.1046 13 17 12.1046 17 11V2C17 0.895431 16.1046 0 15 0H6ZM11.5 5C10.6716 5 10 5.67157 10 6.5C10 7.32843 10.6716 8 11.5 8H13.5C14.3284 8 15 7.32843 15 6.5C15 5.67157 14.3284 5 13.5 5H11.5Z" fill="#6F6C99"/>
</g>
<defs>
<filter id="filter0_d_91_815" x="0" y="0" width="21" height="21" filterUnits="userSpaceOnUse" color-interpolation-filters="sRGB">
<feFlood flood-opacity="0" result="BackgroundImageFix"/>
<feColorMatrix in="SourceAlpha" type="matrix" values="0 0 0 0 0 0 0 0 0 0 0 0 0 0 0 0 0 0 127 0" result="hardAlpha"/>
<feOffset dy="4"/>
<feGaussianBlur stdDeviation="2"/>
<feComposite in2="hardAlpha" operator="out"/>
<feColorMatrix type="matrix" values="0 0 0 0 0 0 0 0 0 0 0 0 0 0 0 0 0 0 0.25 0"/>
<feBlend mode="normal" in2="BackgroundImageFix" result="effect1_dropShadow_91_815"/>
<feBlend mode="normal" in="SourceGraphic" in2="effect1_dropShadow_91_815" result="shape"/>
</filter>
</defs>
</svg>
