<svg width="118" height="86" viewBox="0 0 118 86" fill="none" xmlns="http://www.w3.org/2000/svg">
<path d="M59 0C67.7788 0 76.5709 3.33557 83.2689 10.0334C88.9535 15.718 92.2277 22.9046 93.088 30.3147C107.066 31.5837 118 43.3194 118 57.6279C118 72.7835 105.714 85.0698 90.5581 85.0698H23.3256C10.4032 85.0698 0 74.6666 0 61.7442C0 48.8218 10.4032 38.4186 23.3256 38.4186H24.9549C23.7459 28.3277 27.0301 17.7773 34.7741 10.0334C41.4716 3.33557 50.2212 0 59 0ZM59 28.814C58.2717 28.8112 57.7603 28.948 57.1562 29.5L42.0632 43.2209C40.9895 44.1844 40.7922 46.0644 41.8488 47.1227C42.868 48.1437 44.6855 48.2668 45.7508 47.2942L56.2558 37.7326V67.2326C56.2558 68.7482 57.4841 69.9767 59 69.9767C60.5159 69.9767 61.7442 68.7482 61.7442 67.2326V37.7326L72.2492 47.2942C73.3145 48.2668 75.1829 48.192 76.1512 47.1227C77.1193 46.0533 77.0646 44.2025 75.9368 43.2209L60.8438 29.5C60.4517 29.1408 59.7339 28.8277 59 28.814Z" fill="url(#paint0_linear_4_176)" fill-opacity="0.6"/>
<defs>
<linearGradient id="paint0_linear_4_176" x1="25" y1="4" x2="132.5" y2="91.5" gradientUnits="userSpaceOnUse">
<stop stop-color="#53B9EA"/>
<stop offset="1" stop-color="#2594FB"/>
</linearGradient>
</defs>
</svg>
